<?xml version="1.0" standalone="no"?>
<!DOCTYPE svg PUBLIC "-//W3C//DTD SVG 20010904//EN"
 "http://www.w3.org/TR/2001/REC-SVG-20010904/DTD/svg10.dtd">
<svg version="1.0" xmlns="http://www.w3.org/2000/svg"
 width="300.000000pt" height="300.000000pt" viewBox="0 0 300.000000 300.000000"
 preserveAspectRatio="xMidYMid meet">
<metadata>
Created by potrace 1.11, written by Peter Selinger 2001-2013
</metadata>
<g transform="translate(0.000000,300.000000) scale(0.100000,-0.100000)"
fill="#000000" stroke="none">
<path d="M997 2824 c-1 -1 -56 -5 -122 -9 -66 -3 -127 -8 -135 -10 -8 -2 -50
-7 -92 -10 -82 -7 -86 -7 -218 -31 -152 -27 -253 -62 -297 -103 l-22 -21 60
-137 c33 -76 66 -151 74 -168 28 -63 86 -247 103 -326 10 -46 19 -125 21 -174
3 -106 4 -105 -109 -160 -165 -80 -229 -122 -252 -164 -11 -20 -10 -25 4 -35
25 -18 146 -9 258 20 30 8 58 14 63 14 5 0 -9 -21 -31 -47 -57 -69 -82 -125
-88 -196 -9 -106 -34 -247 -64 -372 -56 -231 -64 -295 -70 -603 -1 -46 0 -86
3 -88 3 -3 156 -5 340 -5 313 0 337 -1 373 -19 48 -25 75 -25 106 0 24 18 42
19 273 19 136 0 249 2 252 4 2 3 -30 108 -73 233 -88 260 -102 339 -65 385 29
38 78 46 264 47 91 1 185 4 209 7 94 13 199 51 281 103 29 18 46 22 70 16 77
-16 143 -60 265 -179 68 -66 138 -129 156 -141 82 -54 215 -78 303 -54 61 18
123 79 143 140 18 57 21 201 6 253 -15 51 -50 65 -164 62 -71 -1 -86 -4 -105
-23 -20 -21 -22 -32 -22 -137 l0 -114 -34 5 c-54 9 -71 18 -155 83 -106 83
-167 116 -256 140 -41 12 -76 21 -77 21 -31 -1 -32 1 -10 33 13 19 22 47 21
63 -1 16 -2 39 -3 51 -2 38 -59 91 -190 178 -106 69 -345 252 -415 317 -11 10
-23 18 -28 18 -4 0 -8 4 -8 10 0 9 19 8 100 -5 14 -3 65 -18 113 -35 49 -16
104 -30 122 -30 43 0 72 29 83 84 22 109 -32 134 -294 135 l-121 1 -21 88
c-25 103 -49 221 -57 277 -3 22 -7 54 -10 70 -4 27 -13 104 -20 180 -2 17 -6
72 -10 124 -4 52 -9 101 -10 110 -2 9 -4 38 -4 64 l-1 48 -206 -3 c-113 -1
-206 -4 -207 -4z"/>
</g>
</svg>
